<svg width="153" height="153" viewBox="0 0 153 153" fill="none" xmlns="http://www.w3.org/2000/svg">
<path d="M31.875 82.875V140.25H19.125V82.875H31.875ZM146.625 82.875V95.625H133.875V140.25H121.125V95.625H108.375V82.875H146.625ZM76.5 70.125C85.4323 70.1726 94.1745 72.7091 101.745 77.4499L110.97 68.2061C100.845 61.1807 88.8229 57.4029 76.5 57.375C64.3411 57.3989 52.4794 61.1356 42.5021 68.085L51.7395 77.3479C59.1562 72.6745 67.7338 70.1723 76.5 70.125Z" fill="white"/>
<path d="M76.5002 44.625C92.1976 44.6576 107.47 49.7304 120.067 59.0963L129.164 49.98C114.106 38.2666 95.5778 31.897 76.5002 31.875C57.5879 31.899 39.2238 38.2298 24.3145 49.8652L33.4052 58.9815C45.8553 49.6913 60.966 44.6574 76.5002 44.625Z" fill="white"/>
<path d="M76.5001 19.1249C98.9597 19.1283 120.746 26.7973 138.255 40.8636L147.352 31.7538C127.473 15.366 102.518 6.3948 76.7554 6.37503C50.9928 6.35526 26.0238 15.2881 6.12012 31.6454L15.2172 40.7553C32.5787 26.7644 54.2029 19.132 76.5001 19.1249ZM76.5001 82.8749C70.8263 82.8749 65.2798 84.5574 60.5622 87.7096C55.8446 90.8618 52.1676 95.3422 49.9963 100.584C47.825 105.826 47.2569 111.594 48.3638 117.159C49.4707 122.724 52.203 127.836 56.215 131.848C60.227 135.86 65.3386 138.592 70.9035 139.699C76.4683 140.806 82.2364 140.237 87.4783 138.066C92.7203 135.895 97.2007 132.218 100.353 127.5C103.505 122.783 105.188 117.236 105.188 111.562C105.188 103.954 102.165 96.6572 96.7852 91.2773C91.4053 85.8973 84.1085 82.8749 76.5001 82.8749ZM76.5001 127.5C73.348 127.5 70.2666 126.565 67.6457 124.814C65.0248 123.063 62.9821 120.574 61.7758 117.661C60.5695 114.749 60.2539 111.545 60.8688 108.453C61.4838 105.362 63.0017 102.522 65.2306 100.293C67.4595 98.064 70.2993 96.5461 73.3909 95.9311C76.4824 95.3162 79.6869 95.6318 82.5991 96.8381C85.5113 98.0443 88.0004 100.087 89.7517 102.708C91.5029 105.329 92.4376 108.41 92.4376 111.562C92.4376 115.789 90.7585 119.843 87.7696 122.832C84.7808 125.821 80.727 127.5 76.5001 127.5Z" fill="white"/>
</svg>
